<svg xmlns="http://www.w3.org/2000/svg" xml:space="preserve" id="Calque_1" width="237" height="115" x="0" y="0" version="1.1"><path d="M12.97 98.47H5.72v4.79h6.43v3.04H5.72v5.06h7.25v3.12H1.89V95.35h11.08zM35.51 95.35v19.12h-3.83l-8.67-13.1v13.1h-3.83V95.35h3.83l8.67 13.13V95.35zM48.61 114.67c-3.97 0-7.03-2.08-7.09-5.69h4.1c.11 1.53 1.12 2.54 2.9 2.54 1.81 0 2.87-.96 2.87-2.33 0-4.13-9.85-1.64-9.82-8.56 0-3.45 2.79-5.53 6.73-5.53 3.91 0 6.59 2 6.84 5.44h-4.21c-.08-1.26-1.09-2.24-2.74-2.27-1.5-.05-2.63.68-2.63 2.24 0 3.83 9.79 1.7 9.79 8.43.02 3.02-2.39 5.73-6.74 5.73M72.49 98.47h-7.25v4.79h6.43v3.04h-6.43v5.06h7.25v3.12H61.41V95.35h11.08zM78.7 95.38h3.83v19.1H78.7zM106.74 101.13h-4.4c-.88-1.62-2.46-2.46-4.49-2.46-3.42 0-5.8 2.44-5.8 6.24 0 3.88 2.41 6.29 5.96 6.29 2.96 0 4.84-1.7 5.42-4.4h-6.57v-2.93h10.34v3.34c-.77 3.88-4.24 7.44-9.33 7.44-5.55 0-9.77-4.02-9.77-9.74s4.21-9.77 9.74-9.77c4.28-.01 7.67 2.16 8.9 5.99M129.12 95.35v19.12h-3.83l-8.67-13.1v13.1h-3.83V95.35h3.83l8.67 13.13V95.35zM146.7 98.47h-7.25v4.79h6.43v3.04h-6.43v5.06h7.25v3.12h-11.08V95.35h11.08zM152.91 95.38h4.35l6.07 14.2 6.07-14.2h4.32v19.1h-3.83v-12.42l-5.12 12.42h-2.9l-5.14-12.42v12.42h-3.83v-19.1zM191.32 98.47h-7.25v4.79h6.43v3.04h-6.43v5.06h7.25v3.12h-11.08V95.35h11.08zM213.86 95.35v19.12h-3.83l-8.67-13.1v13.1h-3.83V95.35h3.83l8.67 13.13V95.35zM219.36 95.38h14.01v3.09h-5.09v16h-3.83v-16h-5.09zM11.03 9.9h12.06l-8.15 46.59h30.78l-1.83 10.48H1.05zM66.35 67.8c-3.27 0-5.95-.83-8.03-2.5q-3.12-2.49-3.12-7.32V33.36l-5.32-2.58v-1.33h13.15v24.71c0 2.33.71 4.11 2.12 5.32 1.41 1.22 3.26 1.83 5.53 1.83 1.39 0 2.91-.24 4.58-.71 1.66-.47 3-1.18 3.99-2.12V33.36l-5.66-2.58v-1.33h13.56v33.78l5.74 2.41v1.33H79.25v-5.24h-.42c-2.05 2.05-4.05 3.58-5.99 4.58-1.94.99-4.1 1.49-6.49 1.49M157.45 66.97h-10.82V34.11H132.9v32.86h-10.8V34.11h-13.73v32.86H97.55V24.13h59.9zM166.94 66.97v-1.33l5.32-2.66V38.1l-5.07-4.16v-.67l11.48-4.66h.58l.75 6.16h.42c2.11-2.05 4.13-3.59 6.07-4.62s4.13-1.54 6.57-1.54c3.22 0 5.89.82 8.03 2.45 2.13 1.64 3.2 4.09 3.2 7.36v24.54l5.24 2.66v1.33H190.9v-1.33l5.49-2.66v-20.7q0-3.57-2.16-5.37c-1.44-1.19-3.3-1.79-5.57-1.79-1.39 0-2.91.22-4.58.67-1.66.44-3 1.14-3.99 2.08v25.13l5.49 2.66v1.33zM224.43 14.12c-1.54 0-2.99-.16-4.35-.49-1.35-.32-2.53-.77-3.51-1.34-.99-.57-1.77-1.26-2.36-2.07-.58-.81-.87-1.71-.87-2.68 0-1.08.28-2.04.85-2.86.57-.83 1.35-1.51 2.36-2.05 1-.54 2.18-.95 3.53-1.22 1.36-.27 2.82-.41 4.39-.41s3.04.14 4.41.41 2.55.68 3.55 1.22 1.79 1.23 2.36 2.05c.57.83.85 1.78.85 2.86 0 .97-.29 1.87-.87 2.68s-1.37 1.5-2.38 2.07c-1 .57-2.19 1.02-3.55 1.34-1.37.33-2.84.49-4.41.49m-8.82 9.02h17.55v43.83h-17.55z"/></svg>